Coordinates
version=1
nRows=20
nColumns=38
inDegrees=no

Units are S.I. units (second, meters, Newtons, ...)
If the header above contains a line with 'inDegrees', this indicates whether rotational values are in degrees (yes) or radians (no).

endheader
time	pelvis_tilt	pelvis_list	pelvis_rotation	pelvis_tx	pelvis_ty	pelvis_tz	hip_flexion_r	hip_adduction_r	hip_rotation_r	knee_angle_r	ankle_angle_r	subtalar_angle_r	mtp_angle_r	hip_flexion_l	hip_adduction_l	hip_rotation_l	knee_angle_l	ankle_angle_l	subtalar_angle_l	mtp_angle_l	lumbar_extension	lumbar_bending	lumbar_rotation	arm_flex_r	arm_add_r	arm_rot_r	elbow_flex_r	pro_sup_r	wrist_flex_r	wrist_dev_r	arm_flex_l	arm_add_l	arm_rot_l	elbow_flex_l	pro_sup_l	wrist_flex_l	wrist_dev_l
30	-0.0224572	1.37688	1.59226	0.614359	0.327714	1.0227	0.28358	-0.0722144	-0.0641405	0.231249	-0.383439	0	0	0.118846	-0.0232534	-0.287969	0	-0.55431	0	0	-0.16683	0.0183936	0.083606	0.068302	-0.615659	0.0178549	1.49429	0.727273	0	0	0.425243	-0.513362	0.457231	1.28613	0.776026	0	0
30.01	-0.0263148	1.37885	1.59492	0.614135	0.327859	1.02286	0.280963	-0.0731847	-0.0652333	0.230254	-0.38372	0	0	0.117604	-0.022605	-0.287963	0	-0.55263	0	0	-0.16815	0.0168558	0.0839988	0.0678399	-0.614987	0.0182465	1.4935	0.728134	0	0	0.42543	-0.513033	0.457371	1.28445	0.777088	0	0
30.02	-0.0288531	1.38056	1.59629	0.613952	0.327965	1.02298	0.278898	-0.0738773	-0.0660168	0.229816	-0.384198	0	0	0.11689	-0.0223882	-0.28805	0	-0.551281	0	0	-0.169607	0.0156055	0.0846608	0.0671101	-0.614368	0.0179553	1.49334	0.728702	0	0	0.425638	-0.5124	0.45698	1.28298	0.776542	0	0
30.03	-0.0292333	1.38263	1.59631	0.613678	0.32797	1.02314	0.276568	-0.0744032	-0.0679424	0.229555	-0.384723	0	0	0.116139	-0.022544	-0.287006	0	-0.549822	0	0	-0.172087	0.0148811	0.0846816	0.0667875	-0.614129	0.0175407	1.49366	0.728984	0	0	0.426476	-0.511947	0.456989	1.28205	0.775577	0	0
30.04	-0.0289797	1.38651	1.59528	0.613451	0.328047	1.02344	0.272045	-0.0746429	-0.0702979	0.228538	-0.386306	0	0	0.112994	-0.022999	-0.287271	0	-0.545465	0	0	-0.177016	0.0142137	0.085445	0.0663189	-0.613989	0.016142	1.49481	0.729637	0	0	0.428101	-0.511712	0.457374	1.28159	0.777647	0	0
30.05	-0.0286667	1.38719	1.59329	0.61337	0.328218	1.02342	0.271566	-0.0745285	-0.0703216	0.228685	-0.386409	0	0	0.112937	-0.0235695	-0.28766	0	-0.544552	0	0	-0.177472	0.0134825	0.0864502	0.0657934	-0.613613	0.0161487	1.49512	0.729766	0	0	0.42781	-0.512094	0.457213	1.28115	0.779178	0	0
30.06	-0.0278622	1.38659	1.59074	0.613295	0.328358	1.0233	0.272935	-0.0742549	-0.0691676	0.229738	-0.385756	0	0	0.114251	-0.0241857	-0.287448	0	-0.544618	0	0	-0.176233	0.0127544	0.0873487	0.0654977	-0.613163	0.0166881	1.49476	0.729782	0	0	0.427124	-0.51226	0.457006	1.2805	0.779588	0	0
30.07	-0.0262074	1.3877	1.58765	0.613165	0.328486	1.02333	0.272166	-0.0737973	-0.0682351	0.230126	-0.385914	0	0	0.113559	-0.0248546	-0.28752	0	-0.543755	0	0	-0.177483	0.0120016	0.087901	0.0659496	-0.612803	0.0171494	1.49451	0.729968	0	0	0.427099	-0.51245	0.456902	1.28055	0.778964	0	0
30.08	-0.0258158	1.39	1.58609	0.612989	0.328744	1.02342	0.26969	-0.0737012	-0.0681406	0.230014	-0.385967	0	0	0.11118	-0.0251147	-0.288602	0	-0.54283	0	0	-0.179777	0.0112487	0.0881701	0.0665523	-0.61267	0.0178341	1.49433	0.7301	0	0	0.427192	-0.512768	0.456977	1.28055	0.778053	0	0
30.09	-0.0270187	1.39205	1.58668	0.612766	0.32884	1.02362	0.26779	-0.0740535	-0.0680985	0.230512	-0.386103	0	0	0.109384	-0.0248021	-0.288694	0	-0.541945	0	0	-0.182409	0.0105226	0.088003	0.0676171	-0.61264	0.0184206	1.49427	0.730195	0	0	0.427807	-0.512864	0.456908	1.28019	0.777506	0	0
30.1	-0.0284635	1.39376	1.58746	0.612539	0.328919	1.02382	0.26619	-0.0744464	-0.0679903	0.230877	-0.38629	0	0	0.107947	-0.0243323	-0.288706	0	-0.54115	0	0	-0.18474	0.00985815	0.0879112	0.0687367	-0.612589	0.0189073	1.49413	0.730227	0	0	0.428384	-0.512733	0.456541	1.27965	0.777002	0	0
30.11	-0.0297452	1.39514	1.58802	0.6123	0.329012	1.02401	0.264743	-0.0748572	-0.0678996	0.230803	-0.386554	0	0	0.106888	-0.0238976	-0.28877	0	-0.540468	0	0	-0.186786	0.00932656	0.0877903	0.0699656	-0.612748	0.0195299	1.49406	0.730113	0	0	0.428749	-0.5126	0.455946	1.27924	0.776229	0	0
30.12	-0.0309669	1.3962	1.58849	0.612054	0.32913	1.02414	0.263437	-0.0753401	-0.0681258	0.230408	-0.386922	0	0	0.106206	-0.0235218	-0.288673	0	-0.539814	0	0	-0.188454	0.00889604	0.0876406	0.0712572	-0.613068	0.0202828	1.494	0.729976	0	0	0.428937	-0.512377	0.455228	1.27889	0.775371	0	0
30.13	-0.0312477	1.39959	1.58823	0.611771	0.32927	1.02446	0.25892	-0.0758041	-0.0699111	0.228456	-0.389952	0	0	0.102954	-0.0234019	-0.289	0	-0.537481	0	0	-0.193123	0.00910257	0.0872166	0.073373	-0.613862	0.0211182	1.49462	0.728304	0	0	0.429096	-0.511426	0.452818	1.27881	0.775246	0	0
30.14	-0.0327987	1.39815	1.5889	0.61157	0.329401	1.02436	0.260563	-0.0762967	-0.0700154	0.228587	-0.388517	0	0	0.105117	-0.0231573	-0.287979	0	-0.537888	0	0	-0.191449	0.00887234	0.0875888	0.0734669	-0.613904	0.0211974	1.49463	0.729526	0	0	0.428916	-0.510446	0.45224	1.27739	0.77499	0	0
30.15	-0.0328926	1.39851	1.58808	0.611385	0.329505	1.02439	0.260077	-0.0763699	-0.0708892	0.22811	-0.388904	0	0	0.105255	-0.023271	-0.287172	0	-0.537295	0	0	-0.192705	0.00833415	0.0876053	0.0747921	-0.614145	0.0218522	1.49477	0.729377	0	0	0.429502	-0.511236	0.452538	1.27804	0.775146	0	0
30.16	-0.0318412	1.40201	1.58628	0.61119	0.329612	1.02467	0.255849	-0.0762502	-0.0733092	0.226843	-0.391062	0	0	0.101827	-0.0236151	-0.28695	0	-0.534538	0	0	-0.197953	0.00853386	0.0881172	0.076355	-0.615104	0.0216025	1.49598	0.72657	0	0	0.430866	-0.510303	0.45129	1.27809	0.775355	0	0
30.17	-0.0320945	1.40283	1.58552	0.611062	0.32975	1.02471	0.255173	-0.0763754	-0.0744311	0.226959	-0.391168	0	0	0.101281	-0.023711	-0.286345	0.000132253	-0.533926	0	0	-0.199224	0.00877479	0.0891801	0.0769917	-0.615874	0.0215019	1.49641	0.725925	0	0	0.431465	-0.508192	0.449699	1.27643	0.775021	0	0
30.18	-0.0325089	1.40167	1.58489	0.610962	0.329892	1.02456	0.257324	-0.076585	-0.0747795	0.228477	-0.390383	0	0	0.10321	-0.0238226	-0.285754	0.00197807	-0.533772	0	0	-0.198169	0.00822779	0.089799	0.0778811	-0.616201	0.0224293	1.49574	0.727907	0	0	0.431972	-0.508221	0.449947	1.2761	0.775152	0	0
30.19	-0.0314423	1.4031	1.58268	0.610876	0.329996	1.02462	0.25662	-0.0763731	-0.0753685	0.229498	-0.390367	0	0	0.102128	-0.024232	-0.285959	0.00325503	-0.532889	0	0	-0.201033	0.00734744	0.0903077	0.0800398	-0.616859	0.0237102	1.49531	0.727336	0	0	0.433974	-0.510337	0.451986	1.27793	0.774828	0	0
